<svg xmlns="http://www.w3.org/2000/svg" version="1.1" xmlns:xlink="http://www.w3.org/1999/xlink" xmlns:svgjs="http://svgjs.dev/svgjs" width="1440" height="560" preserveAspectRatio="none" viewBox="0 0 1440 560"><g mask="url(&quot;#SvgjsMask1008&quot;)" fill="none"><rect width="1440" height="560" x="0" y="0" fill="rgba(191, 191, 193, 1)"></rect><path d="M1123.2 14.1 a137.23 137.23 0 1 0 274.46 0 a137.23 137.23 0 1 0 -274.46 0z" fill="rgba(115, 114, 114, 0.4)" class="triangle-float2"></path><path d="M1188.273,415.791C1209.03,415.352,1219.507,392.832,1229.064,374.4C1237.584,357.968,1245.359,339.261,1236.334,323.101C1227.145,306.648,1207.111,300.854,1188.273,301.361C1170.405,301.842,1153.534,310.155,1144.491,325.572C1135.341,341.171,1136.486,359.92,1144.381,376.189C1153.602,395.19,1167.158,416.237,1188.273,415.791" fill="rgba(115, 114, 114, 0.4)" class="triangle-float3"></path><path d="M287.029,704.796C331.396,703.547,377.224,694.614,402.037,657.813C429.807,616.626,436.064,562.713,412.205,519.143C387.481,473.993,338.462,445.699,287.029,447.792C238.668,449.76,202.768,486.877,178.334,528.658C153.596,570.96,134.492,622.92,160.227,664.623C185.183,705.064,239.527,706.134,287.029,704.796" fill="rgba(115, 114, 114, 0.4)" class="triangle-float1"></path><path d="M682.74 16.77 a120.06 120.06 0 1 0 240.12 0 a120.06 120.06 0 1 0 -240.12 0z" fill="rgba(115, 114, 114, 0.4)" class="triangle-float1"></path><path d="M812.2903177160695 509.403026208294L872.8932736416284 610.2632823249945 913.15057383277 448.8000702827351z" fill="rgba(115, 114, 114, 0.4)" class="triangle-float3"></path><path d="M136.10965351451947 123.87686165952607L58.219938450559226 48.659638149338264-16.99728505962858 126.5493532132985 60.89243000433166 201.7665767234863z" fill="rgba(115, 114, 114, 0.4)" class="triangle-float2"></path><path d="M123.98912568676099 386.49964020116647L245.4201746125207 382.25917453248877 241.17970894384302 260.8281256067291 119.74866001808331 265.0685912754068z" fill="rgba(115, 114, 114, 0.4)" class="triangle-float3"></path><path d="M1240.612499290536-71.92437006944293L1113.5384892659713 4.429398256231494 1189.8922575916458 131.50340828079624 1316.9662676162106 55.14963995512183z" fill="rgba(115, 114, 114, 0.4)" class="triangle-float2"></path><path d="M804.6997893000315 244.89737136508458L871.3305813762372 375.66766388397525 935.4700818189222 178.26657928887886z" fill="rgba(115, 114, 114, 0.4)" class="triangle-float1"></path><path d="M379.0431251086582 233.30258579119246L282.8503436879746 173.1946648064943 222.74242270327642 269.3874462271779 318.93520412396003 329.4953672118761z" fill="rgba(115, 114, 114, 0.4)" class="triangle-float2"></path><path d="M1330.385,433.226C1346.468,432.668,1358.142,420.096,1366.556,406.378C1375.509,391.78,1384.063,374.276,1375.71,359.327C1367.231,344.153,1347.706,340.191,1330.385,341.646C1315.555,342.892,1304.279,353.242,1296.573,365.974C1288.5,379.311,1282.585,395.12,1289.588,409.049C1297.199,424.186,1313.452,433.814,1330.385,433.226" fill="rgba(115, 114, 114, 0.4)" class="triangle-float1"></path><path d="M1234.67 95.29 a141.39 141.39 0 1 0 282.78 0 a141.39 141.39 0 1 0 -282.78 0z" fill="rgba(115, 114, 114, 0.4)" class="triangle-float2"></path><path d="M466.23 541.1 a102.72 102.72 0 1 0 205.44 0 a102.72 102.72 0 1 0 -205.44 0z" fill="rgba(115, 114, 114, 0.4)" class="triangle-float3"></path><path d="M1231.909,427.406C1246.818,426.938,1259.914,418.204,1267.291,405.24C1274.584,392.424,1275.139,376.877,1268.007,363.971C1260.633,350.628,1247.15,341.567,1231.909,341.214C1216.049,340.847,1200.901,348.592,1192.795,362.229C1184.514,376.161,1184.116,393.694,1192.456,407.591C1200.572,421.115,1216.144,427.901,1231.909,427.406" fill="rgba(115, 114, 114, 0.4)" class="triangle-float3"></path><path d="M588.9985564020487 407.08612256847766L474.17810072495877 415.11515097987774 482.20712913635884 529.9356066569677 597.0275848134488 521.9065782455676z" fill="rgba(115, 114, 114, 0.4)" class="triangle-float2"></path><path d="M136.5936864552432 288.53019479222706L25.051482843927033 247.93215281324788 95.995644476264 400.0723984035432z" fill="rgba(115, 114, 114, 0.4)" class="triangle-float1"></path><path d="M79.812,350.183C111.913,351.346,147.017,341.316,161.517,312.653C175.194,285.617,157.549,255.472,140.338,230.537C126.019,209.792,105.017,194.609,79.812,194.278C54.022,193.939,30.351,207.173,16.467,228.909C1.34,252.591,-5.252,282.174,7.758,307.082C21.646,333.67,49.835,349.097,79.812,350.183" fill="rgba(115, 114, 114, 0.4)" class="triangle-float2"></path><path d="M1164.1188820465247 39.93650065288837L1245.567824250329 137.19165192216778 1285.308058718635 33.664801680415735z" fill="rgba(115, 114, 114, 0.4)" class="triangle-float2"></path><path d="M909.3 476.22 a93.42 93.42 0 1 0 186.84 0 a93.42 93.42 0 1 0 -186.84 0z" fill="rgba(115, 114, 114, 0.4)" class="triangle-float1"></path><path d="M731.382,604.745C778.309,605.896,826.541,588.25,849.572,547.347C872.262,507.05,860.213,458.116,836.199,418.594C813.243,380.813,775.492,355.766,731.382,352.828C681.014,349.473,624.368,359.036,599.222,402.807C574.134,446.477,595.249,499.644,622.828,541.784C647.379,579.298,686.561,603.645,731.382,604.745" fill="rgba(115, 114, 114, 0.4)" class="triangle-float2"></path></g><defs><mask id="SvgjsMask1008"><rect width="1440" height="560" fill="#ffffff"></rect></mask><style>
                @keyframes float1 {
                    0%{transform: translate(0, 0)}
                    50%{transform: translate(-10px, 0)}
                    100%{transform: translate(0, 0)}
                }

                .triangle-float1 {
                    animation: float1 5s infinite;
                }

                @keyframes float2 {
                    0%{transform: translate(0, 0)}
                    50%{transform: translate(-5px, -5px)}
                    100%{transform: translate(0, 0)}
                }

                .triangle-float2 {
                    animation: float2 4s infinite;
                }

                @keyframes float3 {
                    0%{transform: translate(0, 0)}
                    50%{transform: translate(0, -10px)}
                    100%{transform: translate(0, 0)}
                }

                .triangle-float3 {
                    animation: float3 6s infinite;
                }
            </style></defs></svg>