<svg xmlns="http://www.w3.org/2000/svg" version="1.1"
    xmlns:xlink="http://www.w3.org/1999/xlink"
    xmlns:svgjs="http://svgjs.dev/svgjs" width="1440" height="560" preserveAspectRatio="none" viewBox="0 0 1440 560">
    <g mask="url(&quot;#SvgjsMask1023&quot;)" fill="none">
        <rect width="1440" height="560" x="0" y="0" fill="rgba(191, 191, 193, 1)"></rect>
        <path d="M867.0441000351126 84.92770178456507L739.7038802645287 82.58357300547777 791.9721393076438 180.8858710854421z" fill="rgba(115, 114, 114, 0.4)" class="triangle-float1"></path>
        <path d="M506.845,398.148C540.684,398.545,569.978,377.799,587.859,349.068C606.974,318.355,618.271,279.734,599.96,248.534C581.807,217.603,542.695,210.017,506.845,211.025C473.076,211.975,439.134,224.194,422.379,253.528C405.738,282.662,412.14,318.231,429.061,347.203C445.815,375.888,473.628,397.758,506.845,398.148" fill="rgba(115, 114, 114, 0.4)" class="triangle-float2"></path>
        <path d="M152.33 28.43 a151.67 151.67 0 1 0 303.34 0 a151.67 151.67 0 1 0 -303.34 0z" fill="rgba(115, 114, 114, 0.4)" class="triangle-float1"></path>
        <path d="M960.94 442.93 a179.76 179.76 0 1 0 359.52 0 a179.76 179.76 0 1 0 -359.52 0z" fill="rgba(115, 114, 114, 0.4)" class="triangle-float1"></path>
        <path d="M581.3619520590466 297.1111426514464L770.1961497091074 264.00010588687326 664.7288584620965 133.7588478184852z" fill="rgba(115, 114, 114, 0.4)" class="triangle-float2"></path>
        <path d="M1144.0195951185126 86.39095830625327L1310.2187516600272 100.93150039120617 1324.7592937449801-65.2676561503085 1158.5601372034655-79.8081982352614z" fill="rgba(115, 114, 114, 0.4)" class="triangle-float3"></path>
        <path d="M574.2,731.949C627.784,730.385,681.376,713.324,709.913,667.944C740.263,619.683,741.288,558.901,714.756,508.44C686.209,454.148,635.527,408.557,574.2,409.834C514.463,411.078,472.765,462.036,443.429,514.089C414.775,564.932,393.994,626.251,424.03,676.29C453.477,725.348,517.007,733.619,574.2,731.949" fill="rgba(115, 114, 114, 0.4)" class="triangle-float2"></path>
        <path d="M557.189,420.397C578.364,418.848,596.96,408.627,608.866,391.048C622.75,370.548,635.475,344.603,623.015,323.208C610.598,301.886,581.862,302.502,557.189,302.315C532.023,302.124,503.825,301.428,489.609,322.195C473.966,345.047,474.824,376.89,490.523,399.703C504.661,420.247,532.316,422.216,557.189,420.397" fill="rgba(115, 114, 114, 0.4)" class="triangle-float2"></path>
        <path d="M427.35194423350606 97.60286638892968L443.4566951994373 250.82933652329308 596.6831653338007 234.72458555736182 580.5784143678695 81.49811542299841z" fill="rgba(115, 114, 114, 0.4)" class="triangle-float1"></path>
        <path d="M978.439,756.483C1030.393,760.427,1083.086,736.259,1108.69,690.881C1133.93,646.147,1124.722,590.412,1096.268,547.651C1070.736,509.281,1024.511,493.93,978.439,495.137C934.712,496.283,892.235,515.406,870.838,553.557C849.851,590.977,858.359,635.499,878.458,673.404C900.214,714.435,932.13,752.968,978.439,756.483" fill="rgba(115, 114, 114, 0.4)" class="triangle-float2"></path>
        <path d="M1011.3754592250408 137.01708131969986L967.9946230335806 201.33181583860352 1086.1571429076662 234.2457028663419z" fill="rgba(115, 114, 114, 0.4)" class="triangle-float2"></path>
        <path d="M207.7217319001634-6.124419740924353L218.17798951394263 93.3602260238109 362.17682935415587 27.93351672077445z" fill="rgba(115, 114, 114, 0.4)" class="triangle-float3"></path>
        <path d="M824.5212741170892 460.0635963419756L761.9153458629434 373.72100632732304 722.5145626577519 458.216258584353z" fill="rgba(115, 114, 114, 0.4)" class="triangle-float3"></path>
        <path d="M1223.531,240.924C1246.698,239.309,1259.272,216.163,1270.188,195.666C1280.207,176.855,1289.089,155.474,1279.053,136.672C1268.56,117.014,1245.802,108.981,1223.531,108.26C1199.673,107.488,1174.098,112.645,1161.413,132.865C1148.075,154.126,1151.548,181.307,1164.056,203.066C1176.609,224.903,1198.404,242.676,1223.531,240.924" fill="rgba(115, 114, 114, 0.4)" class="triangle-float2"></path>
        <path d="M1272.25 77.33 a107.01 107.01 0 1 0 214.02 0 a107.01 107.01 0 1 0 -214.02 0z" fill="rgba(115, 114, 114, 0.4)" class="triangle-float1"></path>
        <path d="M472.0930060332888 443.97453455832476L389.0670279587988 412.1038476018891 382.77398656139025 552.578158191842z" fill="rgba(115, 114, 114, 0.4)" class="triangle-float3"></path>
        <path d="M-138.75 422.57 a178.14 178.14 0 1 0 356.28 0 a178.14 178.14 0 1 0 -356.28 0z" fill="rgba(115, 114, 114, 0.4)" class="triangle-float1"></path>
        <path d="M252.02850813937278 417.8132687699734L166.04603867793773 434.52656776431155 182.75933767227593 520.5090372257466 268.74180713371095 503.79573823140845z" fill="rgba(115, 114, 114, 0.4)" class="triangle-float3"></path>
        <path d="M474.956,677.159C529.275,677.851,584.513,658.458,612.208,611.725C640.375,564.195,634.888,503.887,605.288,457.236C577.677,413.719,526.463,393.637,474.956,395.406C426.621,397.066,384.647,424.521,359.256,465.683C332.346,509.309,319.029,563.335,343.631,608.303C369.058,654.778,421.984,676.484,474.956,677.159" fill="rgba(115, 114, 114, 0.4)" class="triangle-float3"></path>
        <path d="M124.363,533.34C167.812,530.852,203.179,501.302,223.803,462.979C243.274,426.798,242.107,384.914,224.121,347.972C203.188,304.977,172.165,260.033,124.363,258.731C75.137,257.39,38.769,299.292,14.726,342.268C-8.624,384.006,-20.779,434.141,3.023,475.623C26.915,517.26,76.437,536.085,124.363,533.34" fill="rgba(115, 114, 114, 0.4)" class="triangle-float1"></path>
    </g>
    <defs>
        <mask id="SvgjsMask1023">
            <rect width="1440" height="560" fill="#ffffff"></rect>
        </mask>
    </defs>
</svg>